<svg width="148" height="102" viewBox="0 0 148 102" fill="none" xmlns="http://www.w3.org/2000/svg">
<path d="M46.76 1.99999V100H19.04V23.42H0.84V1.99999H46.76ZM104.758 101.96C96.3583 101.96 88.8916 99.9533 82.3583 95.94C75.8249 91.9267 70.6916 86.0933 66.9583 78.44C63.3183 70.6933 61.4983 61.5467 61.4983 51C61.4983 40.4533 63.3183 31.3533 66.9583 23.7C70.6916 15.9533 75.8249 10.0733 82.3583 6.06C88.8916 2.04666 96.3583 0.0399935 104.758 0.0399935C113.065 0.0399935 120.485 2.04666 127.018 6.06C133.552 10.0733 138.638 15.9533 142.278 23.7C146.012 31.3533 147.878 40.4533 147.878 51C147.878 61.5467 146.012 70.6933 142.278 78.44C138.638 86.0933 133.552 91.9267 127.018 95.94C120.485 99.9533 113.065 101.96 104.758 101.96ZM104.758 79.28C109.425 79.28 113.112 77.04 115.818 72.56C118.618 67.9867 120.018 60.8 120.018 51C120.018 41.2 118.618 34.06 115.818 29.58C113.112 25.0067 109.425 22.72 104.758 22.72C99.9983 22.72 96.2183 25.0067 93.4183 29.58C90.7116 34.06 89.3583 41.2 89.3583 51C89.3583 60.8 90.7116 67.9867 93.4183 72.56C96.2183 77.04 99.9983 79.28 104.758 79.28Z" fill="url(#paint0_linear_139_632)"/>
<defs>
<linearGradient id="paint0_linear_139_632" x1="153" y1="49.2422" x2="-10.9657" y2="98.4948" gradientUnits="userSpaceOnUse">
<stop stop-color="#020A21"/>
<stop offset="1" stop-color="#102774"/>
</linearGradient>
</defs>
</svg>
