<svg width="82" height="100" viewBox="0 0 82 100" fill="none" xmlns="http://www.w3.org/2000/svg">
<path d="M81.5 78.02V100H5.2V82.64L41.88 48.34C45.4267 44.98 47.8067 42.1333 49.02 39.8C50.2333 37.3733 50.84 34.9467 50.84 32.52C50.84 29.3467 49.7667 26.8733 47.62 25.1C45.4733 23.3267 42.3467 22.44 38.24 22.44C34.6 22.44 31.24 23.28 28.16 24.96C25.1733 26.5467 22.7 28.88 20.74 31.96L0.16 20.48C3.98667 14.1333 9.35333 9.14 16.26 5.5C23.1667 1.86 31.3333 0.0399935 40.76 0.0399935C48.2267 0.0399935 54.8067 1.25333 60.5 3.68C66.2867 6.10666 70.7667 9.60666 73.94 14.18C77.2067 18.66 78.84 23.8867 78.84 29.86C78.84 35.18 77.6733 40.22 75.34 44.98C73.1 49.6467 68.7133 54.9667 62.18 60.94L43.7 78.02H81.5Z" fill="url(#paint0_linear_139_624)"/>
<defs>
<linearGradient id="paint0_linear_139_624" x1="85.0002" y1="49.2422" x2="-10.5443" y2="64.9991" gradientUnits="userSpaceOnUse">
<stop stop-color="#020A21"/>
<stop offset="1" stop-color="#102774"/>
</linearGradient>
</defs>
</svg>
