<svg width="82" height="100" viewBox="0 0 82 100" fill="none" xmlns="http://www.w3.org/2000/svg">
<path d="M56.02 39.2C64.14 40.88 70.3467 44.24 74.64 49.28C79.0267 54.2267 81.22 60.2467 81.22 67.34C81.22 73.1267 79.6333 78.4933 76.46 83.44C73.38 88.3867 68.62 92.4 62.18 95.48C55.8333 98.4667 47.9467 99.96 38.52 99.96C31.6133 99.96 24.7533 99.12 17.94 97.44C11.22 95.76 5.38667 93.38 0.44 90.3L10.52 69.44C14.3467 72.0533 18.64 74.06 23.4 75.46C28.2533 76.86 33.0133 77.56 37.68 77.56C42.44 77.56 46.22 76.6733 49.02 74.9C51.82 73.1267 53.22 70.6067 53.22 67.34C53.22 60.9933 48.2267 57.82 38.24 57.82H26.62V40.32L44.12 21.42H5.48V-6.67572e-06H76.32V17.36L56.02 39.2Z" fill="url(#paint0_linear_139_625)"/>
<defs>
<linearGradient id="paint0_linear_139_625" x1="86.0002" y1="47.2422" x2="-10.6205" y2="63.3662" gradientUnits="userSpaceOnUse">
<stop stop-color="#020A21"/>
<stop offset="1" stop-color="#102774"/>
</linearGradient>
</defs>
</svg>
