<svg width="81" height="100" viewBox="0 0 81 100" fill="none" xmlns="http://www.w3.org/2000/svg">
<path d="M40.44 35.7C54.16 35.7 64.2867 38.5 70.82 44.1C77.4467 49.7 80.76 57.1667 80.76 66.5C80.76 72.5667 79.1733 78.1667 76 83.3C72.92 88.34 68.16 92.4 61.72 95.48C55.3733 98.4667 47.4867 99.96 38.06 99.96C31.1533 99.96 24.2933 99.12 17.48 97.44C10.76 95.76 4.97333 93.38 0.12 90.3L10.06 69.44C13.98 72.0533 18.2733 74.06 22.94 75.46C27.7 76.86 32.46 77.56 37.22 77.56C41.98 77.56 45.76 76.6733 48.56 74.9C51.4533 73.0333 52.9 70.4667 52.9 67.2C52.9 63.9333 51.5 61.46 48.7 59.78C45.9 58.1 40.9533 57.26 33.86 57.26H7.26L12.16 -6.67572e-06H74.6V21.42H35.12L33.86 35.7H40.44Z" fill="url(#paint0_linear_139_627)"/>
<defs>
<linearGradient id="paint0_linear_139_627" x1="85.0002" y1="47.2422" x2="-12.6946" y2="63.7373" gradientUnits="userSpaceOnUse">
<stop stop-color="#020A21"/>
<stop offset="1" stop-color="#102774"/>
</linearGradient>
</defs>
</svg>
