<svg width="85" height="102" viewBox="0 0 85 102" fill="none" xmlns="http://www.w3.org/2000/svg">
<path d="M50.88 37.56C57.04 37.56 62.6867 38.8667 67.82 41.48C72.9533 44 77.0133 47.64 80 52.4C83.08 57.0667 84.62 62.4333 84.62 68.5C84.62 75.1267 82.8933 81.0067 79.44 86.14C76.08 91.18 71.46 95.1 65.58 97.9C59.7933 100.607 53.3067 101.96 46.12 101.96C32.12 101.96 21.06 97.8067 12.94 89.5C4.82 81.1933 0.76 69.2467 0.76 53.66C0.76 42.46 2.90667 32.8467 7.2 24.82C11.5867 16.7 17.7 10.54 25.54 6.34C33.38 2.13999 42.48 0.0399935 52.84 0.0399935C58.44 0.0399935 63.76 0.646661 68.8 1.86C73.84 3.07333 78.1333 4.84666 81.68 7.17999L71.6 27.06C66.84 23.7 60.82 22.02 53.54 22.02C46.4467 22.02 40.7067 23.98 36.32 27.9C31.9333 31.82 29.4133 37.4667 28.76 44.84C34.36 39.9867 41.7333 37.56 50.88 37.56ZM44.44 82.22C48.36 82.22 51.5333 81.1 53.96 78.86C56.48 76.62 57.74 73.5867 57.74 69.76C57.74 66.0267 56.48 63.04 53.96 60.8C51.5333 58.56 48.3133 57.44 44.3 57.44C40.2867 57.44 37.02 58.6067 34.5 60.94C31.98 63.18 30.72 66.1667 30.72 69.9C30.72 73.54 31.9333 76.5267 34.36 78.86C36.88 81.1 40.24 82.22 44.44 82.22Z" fill="url(#paint0_linear_139_628)"/>
<defs>
<linearGradient id="paint0_linear_139_628" x1="87.0002" y1="49.2422" x2="-16.0328" y2="67.65" gradientUnits="userSpaceOnUse">
<stop stop-color="#020A21"/>
<stop offset="1" stop-color="#102774"/>
</linearGradient>
</defs>
</svg>
