<svg width="86" height="102" viewBox="0 0 86 102" fill="none" xmlns="http://www.w3.org/2000/svg">
<path d="M71.32 48.34C75.8 50.9533 79.2533 54.1733 81.68 58C84.1067 61.8267 85.32 66.2133 85.32 71.16C85.32 77.32 83.5467 82.7333 80 87.4C76.4533 92.0667 71.46 95.66 65.02 98.18C58.58 100.7 51.16 101.96 42.76 101.96C34.36 101.96 26.94 100.7 20.5 98.18C14.06 95.66 9.06667 92.0667 5.52 87.4C1.97333 82.7333 0.2 77.32 0.2 71.16C0.2 66.2133 1.41333 61.8267 3.84 58C6.26667 54.1733 9.72 50.9533 14.2 48.34C10.84 46.0067 8.22667 43.16 6.36 39.8C4.58667 36.44 3.7 32.7067 3.7 28.6C3.7 22.9067 5.33333 17.9133 8.6 13.62C11.8667 9.23333 16.44 5.87333 22.32 3.54C28.2933 1.20666 35.1067 0.0399935 42.76 0.0399935C50.4133 0.0399935 57.18 1.20666 63.06 3.54C69.0333 5.87333 73.6533 9.23333 76.92 13.62C80.1867 17.9133 81.82 22.9067 81.82 28.6C81.82 32.7067 80.8867 36.44 79.02 39.8C77.2467 43.16 74.68 46.0067 71.32 48.34ZM42.76 19.5C39.3067 19.5 36.5067 20.4333 34.36 22.3C32.2133 24.0733 31.14 26.5933 31.14 29.86C31.14 33.0333 32.1667 35.5533 34.22 37.42C36.3667 39.1933 39.2133 40.08 42.76 40.08C46.3067 40.08 49.1533 39.1933 51.3 37.42C53.4467 35.5533 54.52 33.0333 54.52 29.86C54.52 26.5933 53.4467 24.0733 51.3 22.3C49.1533 20.4333 46.3067 19.5 42.76 19.5ZM42.76 82.5C47.24 82.5 50.7867 81.4267 53.4 79.28C56.1067 77.04 57.46 74.0533 57.46 70.32C57.46 66.5867 56.1067 63.6467 53.4 61.5C50.7867 59.26 47.24 58.14 42.76 58.14C38.28 58.14 34.6867 59.26 31.98 61.5C29.3667 63.6467 28.06 66.5867 28.06 70.32C28.06 74.0533 29.3667 77.04 31.98 79.28C34.6867 81.4267 38.28 82.5 42.76 82.5Z" fill="url(#paint0_linear_139_630)"/>
<defs>
<linearGradient id="paint0_linear_139_630" x1="90.0002" y1="49.2422" x2="-16.2093" y2="68.8431" gradientUnits="userSpaceOnUse">
<stop stop-color="#020A21"/>
<stop offset="1" stop-color="#102774"/>
</linearGradient>
</defs>
</svg>
