<svg width="85" height="102" viewBox="0 0 85 102" fill="none" xmlns="http://www.w3.org/2000/svg">
<path d="M38.6 0.0399935C52.6933 0.0399935 63.8 4.19333 71.92 12.5C80.04 20.8067 84.1 32.7533 84.1 48.34C84.1 59.54 81.9067 69.2 77.52 77.32C73.2267 85.3467 67.1133 91.46 59.18 95.66C51.34 99.86 42.24 101.96 31.88 101.96C26.3733 101.96 21.1 101.307 16.06 100C11.02 98.7867 6.72667 97.06 3.18 94.82L13.26 74.94C18.02 78.3 24.04 79.98 31.32 79.98C38.32 79.98 43.9667 78.0667 48.26 74.24C52.6467 70.32 55.2133 64.6733 55.96 57.3C50.36 62.06 43.0333 64.44 33.98 64.44C27.82 64.44 22.1733 63.18 17.04 60.66C11.9067 58.0467 7.8 54.4067 4.72 49.74C1.73333 44.98 0.24 39.5667 0.24 33.5C0.24 26.8733 1.92 21.04 5.28 16C8.73333 10.8667 13.3533 6.94666 19.14 4.24C25.02 1.43999 31.5067 0.0399935 38.6 0.0399935ZM40.56 44.56C44.5733 44.56 47.84 43.44 50.36 41.2C52.88 38.8667 54.14 35.8333 54.14 32.1C54.14 28.46 52.88 25.52 50.36 23.28C47.9333 20.9467 44.62 19.78 40.42 19.78C36.5 19.78 33.28 20.9 30.76 23.14C28.3333 25.38 27.12 28.4133 27.12 32.24C27.12 35.9733 28.3333 38.96 30.76 41.2C33.28 43.44 36.5467 44.56 40.56 44.56Z" fill="url(#paint0_linear_139_631)"/>
<defs>
<linearGradient id="paint0_linear_139_631" x1="89.0002" y1="49.2422" x2="-14.0328" y2="67.65" gradientUnits="userSpaceOnUse">
<stop stop-color="#020A21"/>
<stop offset="1" stop-color="#102774"/>
</linearGradient>
</defs>
</svg>
