<svg width="27" height="12" viewBox="0 0 27 12" fill="none" xmlns="http://www.w3.org/2000/svg">
<path d="M26.3536 6.35356C26.5488 6.15829 26.5488 5.84171 26.3536 5.64645L23.1716 2.46447C22.9763 2.26921 22.6597 2.26921 22.4645 2.46447C22.2692 2.65973 22.2692 2.97631 22.4645 3.17157L25.2929 6L22.4645 8.82843C22.2692 9.02369 22.2692 9.34027 22.4645 9.53554C22.6597 9.7308 22.9763 9.7308 23.1716 9.53554L26.3536 6.35356ZM-4.37114e-08 6.5L26 6.5L26 5.5L4.37114e-08 5.5L-4.37114e-08 6.5Z" fill="#009DF1"/>
<path d="M21 11L26 6L21 1" stroke="#009DF1"/>
</svg>
