<svg width="51" height="51" viewBox="0 0 51 51" fill="none" xmlns="http://www.w3.org/2000/svg">
<path d="M46.75 0H4.25003C1.86997 0 0 1.86997 0 4.25003V46.7501C0 49.13 1.86997 51 4.25003 51H23.8001H34.0001H46.7501C49.13 51 51 49.13 51 46.75V4.25003C51 1.86997 49.13 0 46.75 0ZM25.5 49.3V32.3H18.7V25.5H25.5V19.55C25.5 14.705 29.24 10.625 34 10.2H41.65V17H34.8499C33.4049 17 32.2999 18.105 32.2999 19.55V25.5H40.8V32.3H32.3V49.3001L25.5 49.3ZM49.3 46.75C49.3 48.195 48.195 49.3 46.75 49.3H34V34H42.4999V23.8H34V19.5499C34 19.0399 34.3399 18.7 34.8499 18.7H43.35V8.49997H33.915C28.22 9.00997 23.8 13.855 23.8 19.5499V23.8H16.9999V34H23.8V49.3H4.25003C2.805 49.3 1.70003 48.195 1.70003 46.75V4.25003C1.70003 2.805 2.805 1.70003 4.25003 1.70003H46.7501C48.1951 1.70003 49.3001 2.805 49.3001 4.25003L49.3 46.75Z" fill="#EEEEEE"/>
</svg>
