<svg width="181" height="180" viewBox="0 0 181 180" fill="none" xmlns="http://www.w3.org/2000/svg">
<path d="M143.286 11.6129H137.483V0H143.286V11.6129ZM128.2 12.7742L119.497 1.16129L114.855 4.64516L123.558 16.2581L128.2 12.7742ZM165.914 4.64516L161.273 1.16129L152.569 12.7742L157.211 16.2581L165.914 4.64516ZM181 153.871C181 161.875 174.493 168.387 166.495 168.387C159.491 168.387 153.631 163.391 152.282 156.774H111.373V180H1.13135V130.706C1.13135 122.499 4.02375 114.506 9.27476 108.203C9.30667 108.165 9.34149 108.131 9.3734 108.096C5.93558 104.325 4.03246 99.4935 4.03246 94.3548C4.03246 88.8997 6.15607 83.7697 10.0116 79.9113C11.7697 78.1519 12.7358 75.8148 12.7358 73.3268V37.5968C12.7358 27.5545 16.6436 18.1132 23.7397 11.0119C30.8358 3.91065 40.2702 0 50.3051 0H62.2026C72.2375 0 81.6719 3.91065 88.768 11.0119C95.8642 18.1132 99.769 27.5545 99.769 37.5968V73.3297C99.769 75.8148 100.735 78.1548 102.493 79.9142C106.349 83.7697 108.472 88.8997 108.472 94.3548C108.472 99.4935 106.569 104.325 103.131 108.096C103.163 108.134 103.198 108.165 103.23 108.203C108.481 114.506 111.373 122.499 111.373 130.706V150.968H152.282C153.318 145.887 157.037 141.825 161.867 140.182L138.644 101.45C132.998 100.666 128.481 96.1897 127.837 90.3745L126.683 79.9868C126.247 76.0703 124.475 72.3803 121.69 69.5932L112.572 60.4684C108.058 55.9481 105.571 49.9413 105.571 43.5484C105.571 37.1555 108.058 31.1487 112.575 26.6284L113.285 25.9171C116.888 22.3084 121.684 20.3226 126.781 20.3226C130.561 20.3226 134.223 21.4316 137.367 23.5306L140.385 25.5426L143.402 23.5306C146.547 21.4316 150.208 20.3226 153.988 20.3226C159.085 20.3226 163.881 22.3084 167.484 25.9171L168.195 26.6284C172.712 31.1487 175.198 37.1555 175.198 43.5484C175.198 49.9413 172.712 55.9481 168.195 60.4684L159.076 69.5932C156.291 72.3803 154.519 76.0703 154.084 79.9868L152.929 90.3745C152.398 95.1707 149.242 99.0813 144.986 100.745L168.241 139.532C175.41 140.409 181 146.468 181 153.871ZM9.83467 94.3548C9.83467 97.9345 11.1634 101.282 13.5017 103.95C17.8417 100.263 23.055 97.6355 28.6368 96.3958L38.2858 94.2503C40.6067 93.7335 42.359 91.8842 42.7507 89.5384L44.1403 81.1945C35.8315 76.8135 30.1424 68.0981 30.1424 58.0645V37.6287C30.1424 31.2881 35.2977 26.129 41.6337 26.129C44.2331 26.129 46.7803 27.0232 48.8111 28.649L52.2866 31.4303C57.3722 35.5006 63.7547 37.7419 70.2648 37.7419C73.572 37.7419 76.3919 35.28 76.5515 32.2519C76.6356 30.6377 76.0728 29.1077 74.9675 27.9406C73.8621 26.7735 72.3652 26.129 70.758 26.129V20.3226C73.926 20.3226 76.9953 21.6435 79.177 23.9429C81.2484 26.1261 82.3653 28.9452 82.3624 31.9355V58.0645C82.3624 68.0981 76.6733 76.8135 68.3645 81.1916L69.7542 89.5326C70.1458 91.8813 71.8952 93.7306 74.219 94.2474L83.8681 96.3929C89.4498 97.6355 94.6631 100.26 99.0032 103.947C101.341 101.282 102.67 97.9345 102.67 94.3548C102.67 90.45 101.15 86.7803 98.391 84.0164C95.5392 81.1626 93.9668 77.3652 93.9668 73.3268V37.5968C93.9668 29.1048 90.6625 21.1239 84.663 15.1171C78.6635 9.11322 70.6854 5.80645 62.1997 5.80645H50.3051C41.8194 5.80645 33.8442 9.11322 27.8419 15.1171C21.8424 21.121 18.538 29.1048 18.538 37.5968V73.3297C18.538 77.3681 16.9656 81.1655 14.1138 84.0194C11.3549 86.7803 9.83467 90.45 9.83467 94.3548ZM76.5602 58.0645V41.8616C74.7238 42.9329 72.5682 43.5484 70.2648 43.5484C62.4434 43.5484 54.7728 40.8542 48.666 35.9652L45.1905 33.1839C44.1838 32.3797 42.9218 31.9355 41.6337 31.9355C38.4976 31.9355 35.9447 34.4903 35.9447 37.6287V58.0645C35.9447 69.271 45.0541 78.3871 56.2524 78.3871C67.4507 78.3871 76.5602 69.271 76.5602 58.0645ZM40.3369 99.6765C44.2331 104.554 50.0992 107.419 56.2524 107.419C62.4405 107.419 68.3413 104.525 72.1708 99.6765C67.9294 98.4165 64.7643 94.9093 64.0303 90.4877L62.835 83.3197C60.7288 83.8713 58.5298 84.1936 56.2524 84.1936C53.975 84.1936 51.776 83.8713 49.6669 83.3197L48.4716 90.4906C47.7406 94.9064 44.5784 98.4136 40.3369 99.6765ZM30.1743 101.999C30.2585 106.859 31.8686 111.658 34.7842 115.548C36.4175 117.729 39.0198 119.032 41.7469 119.032C44.4739 119.032 47.0762 117.729 48.7095 115.548L50.8941 112.634C44.7582 111.333 39.1794 107.866 35.3615 102.774L34.0299 101.14L30.1743 101.999ZM61.6108 112.634L63.7953 115.548C65.4286 117.729 68.0338 119.032 70.758 119.032C73.4821 119.032 76.0873 117.729 77.7206 115.548C80.6362 111.658 82.2463 106.859 82.3305 101.999L78.4662 101.14L77.0708 102.861C73.3109 107.884 67.7408 111.336 61.6108 112.634ZM6.93357 130.706V150.968H18.654C18.6134 150.204 18.538 149.444 18.538 148.671C18.538 142.125 20.0843 135.572 23.0086 129.722L24.6448 126.444L29.8349 129.043L28.1987 132.32C25.6747 137.369 24.3402 143.025 24.3402 148.671C24.3402 153.65 25.3353 158.499 27.2935 163.074L32.0543 174.194H80.4506L85.2113 163.077C86.0874 161.027 86.7402 158.92 87.2305 156.774H82.0694C80.7204 163.391 74.863 168.387 67.8568 168.387C59.8585 168.387 53.3513 161.875 53.3513 153.871C53.3513 145.867 59.8585 139.355 67.8568 139.355C74.8601 139.355 80.7204 144.351 82.0694 150.968H88.0486C88.095 150.204 88.1646 149.444 88.1646 148.671C88.1646 143.022 86.8301 137.366 84.3061 132.317L82.6699 129.04L87.86 126.441L89.4962 129.719C92.4205 135.572 93.9668 142.127 93.9668 148.671C93.9668 149.441 93.8914 150.201 93.8508 150.968H105.571V130.706C105.571 123.855 103.158 117.183 98.774 111.919C95.8787 108.444 92.1855 105.706 88.0718 103.886C87.6366 109.341 85.6493 114.648 82.3624 119.032C79.6383 122.667 75.2982 124.839 70.758 124.839C66.2177 124.839 61.8777 122.667 59.1535 119.032L56.2524 115.162L53.3513 119.032C50.6272 122.667 46.2871 124.839 41.7469 124.839C37.2066 124.839 32.8666 122.667 30.1424 119.032C26.8555 114.648 24.8682 109.341 24.4331 103.886C20.3193 105.709 16.6262 108.447 13.7309 111.919C9.34729 117.183 6.93357 123.855 6.93357 130.706ZM67.8568 145.161C63.0584 145.161 59.1535 149.069 59.1535 153.871C59.1535 158.673 63.0584 162.581 67.8568 162.581C72.6553 162.581 76.5602 158.673 76.5602 153.871C76.5602 149.069 72.6553 145.161 67.8568 145.161ZM6.93357 174.194H25.7444L21.9613 165.365C20.769 162.581 19.9044 159.706 19.3329 156.774H6.93357V174.194ZM105.571 156.774H93.1719C92.6004 159.706 91.7359 162.581 90.5464 165.365L86.7634 174.194H105.571V156.774ZM147.782 84.1936L148.322 79.3452C148.357 79.0229 148.421 78.7065 148.47 78.3871H132.302C132.351 78.7065 132.415 79.0229 132.45 79.3452L132.987 84.1936H147.782ZM140.385 55.1613C141.983 55.1613 143.286 53.8577 143.286 52.2581C143.286 50.6584 141.983 49.3548 140.385 49.3548C138.786 49.3548 137.483 50.6584 137.483 52.2581C137.483 53.8577 138.786 55.1613 140.385 55.1613ZM130.611 72.5806H137.483V60.4335C134.115 59.2316 131.681 56.0381 131.681 52.2581C131.681 47.4561 135.586 43.5484 140.385 43.5484C145.183 43.5484 149.088 47.4561 149.088 52.2581C149.088 56.0381 146.654 59.2316 143.286 60.4335V72.5806H150.158C151.313 69.9532 152.929 67.5348 154.974 65.4881L164.092 56.3632C167.513 52.9403 169.396 48.3881 169.396 43.5484C169.396 38.7087 167.513 34.1565 164.092 30.7335L163.382 30.0223C160.872 27.511 157.536 26.129 153.988 26.129C151.357 26.129 148.809 26.9013 146.619 28.3616L140.385 32.5219L134.15 28.3616C131.96 26.9013 129.413 26.129 126.781 26.129C123.233 26.129 119.897 27.511 117.387 30.0223L116.677 30.7335C113.256 34.1565 111.373 38.7087 111.373 43.5484C111.373 48.3881 113.256 52.9403 116.677 56.3632L125.795 65.4881C127.84 67.5348 129.456 69.9532 130.611 72.5806ZM140.385 95.8064C143.773 95.8064 146.607 93.3242 147.109 90H133.657C134.162 93.3242 136.996 95.8064 140.385 95.8064ZM175.198 153.871C175.198 149.069 171.293 145.161 166.495 145.161C161.696 145.161 157.791 149.069 157.791 153.871C157.791 158.673 161.696 162.581 166.495 162.581C171.293 162.581 175.198 158.673 175.198 153.871Z" fill="url(#paint0_linear_126_286)"/>
<defs>
<linearGradient id="paint0_linear_126_286" x1="181" y1="89.7287" x2="-7.89368" y2="153.098" gradientUnits="userSpaceOnUse">
<stop stop-color="#020A21"/>
<stop offset="1" stop-color="#102774"/>
</linearGradient>
</defs>
</svg>
