<svg width="51" height="51" viewBox="0 0 51 51" fill="none" xmlns="http://www.w3.org/2000/svg">
<path d="M50.2014 15.4395C50.6425 15.4395 51 23.053 51 22.6119V4.20561C51 1.8867 49.1133 0 46.7944 0H4.20561C1.8867 0 0 1.8867 0 4.20561V46.7943C0 49.1133 1.8867 51 4.20561 51H46.7943C49.1133 51 51 49.1133 51 46.7944V11.8716C51 11.4307 50.6426 11.0731 50.2014 11.0731C49.7604 11.0731 49.4029 11.4306 49.4029 11.8716V46.7944C49.4029 48.2327 48.2328 49.403 46.7943 49.403H4.20561C2.76725 49.403 1.59704 48.2327 1.59704 46.7944V4.20561C1.59704 2.76725 2.76725 1.59704 4.20561 1.59704H46.7943C48.2328 1.59704 49.4029 2.76725 49.4029 4.20561V15.4395C49.403 15.8805 49.7604 15.4395 50.2014 15.4395Z" fill="#EEEEEE"/>
<path d="M15.2788 29.5339C15.7197 29.5339 16.0773 28.5805 16.0773 28.1394V19.5373C16.0773 19.0964 15.7198 18.7388 15.2788 18.7388H8.46458C8.02361 18.7388 7.66602 19.0963 7.66602 19.5373V42.5353C7.66602 42.9762 8.02351 43.3338 8.46458 43.3338H15.2788C15.7197 43.3338 16.0773 42.9763 16.0773 42.5353V26.5112C16.0773 26.0702 15.7198 25.7126 15.2788 25.7126C14.8377 25.7126 14.4802 26.0701 14.4802 26.5112V41.7367H9.26315V20.3359H14.4803V32.3349C14.4803 32.7758 14.8378 29.5339 15.2788 29.5339Z" fill="#EEEEEE"/>
<path d="M40.6456 20.9267C39.0201 19.5365 36.9149 18.7393 34.8696 18.7393C31.4937 18.7393 29.3553 19.8617 28.0021 21.2445V19.5378C28.0021 19.0969 27.6447 18.7393 27.2036 18.7393H20.3894C19.9484 18.7393 19.5908 19.0968 19.5908 19.5378V42.5357C19.5908 42.9767 19.9483 43.3343 20.3894 43.3343H27.2036C27.6446 43.3343 28.0021 42.9768 28.0021 42.5357V31.4626C28.0021 29.3252 29.7983 28.0022 31.4625 28.0022C33.4675 28.0022 34.9228 29.4575 34.9228 31.4626V42.5356C34.9228 42.9766 35.2802 43.3342 35.7214 43.3342H42.5355C42.9766 43.3342 43.3341 42.9767 43.3341 42.5356V26.3519C43.3341 24.3362 42.3792 22.4095 40.6456 20.9267ZM41.737 41.7371H36.5198V31.4626C36.5198 28.5793 34.3456 26.4052 31.4625 26.4052C29.0302 26.4052 26.4051 28.3388 26.4051 31.4626V41.7371H21.188V20.3363H26.4051V23.7966C26.4051 24.1608 26.6614 24.4865 27.0152 24.5725C27.3798 24.6609 27.7673 24.4756 27.9266 24.1357C29.1091 21.6146 31.4451 20.3363 34.8697 20.3363C38.1115 20.3363 41.7372 22.909 41.7372 26.3519V41.7371H41.737Z" fill="#EEEEEE"/>
<path d="M11.8716 7.66602C9.55262 7.66602 7.66602 9.55272 7.66602 11.8716C7.66602 14.1905 9.55272 16.0772 11.8716 16.0772C14.1905 16.0772 16.0772 14.1905 16.0772 11.8716C16.0772 9.55272 14.1905 7.66602 11.8716 7.66602ZM11.8716 14.4803C10.4333 14.4803 9.26305 13.3101 9.26305 11.8717C9.26305 10.4334 10.4333 9.26315 11.8716 9.26315C13.31 9.26315 14.4802 10.4334 14.4802 11.8717C14.4802 13.3101 13.3099 14.4803 11.8716 14.4803Z" fill="#EEEEEE"/>
</svg>
