<svg width="368" height="368" viewBox="0 0 368 368" fill="none" xmlns="http://www.w3.org/2000/svg">
<g clip-path="url(#clip0_72_205)">
<path d="M358.56 214.41C364.827 197.043 368 178.817 368 160.118C368 117.349 351.345 77.1395 321.103 46.8974C290.862 16.6553 250.652 0 207.883 0C185.67 0 164.164 4.46426 143.962 13.2699C124.452 21.7736 107.061 33.9093 92.2713 49.3405C90.2113 51.4896 90.2839 54.9023 92.4337 56.9623C94.5836 59.0215 97.9941 58.9504 100.056 56.7998C128.497 27.1241 166.792 10.7815 207.883 10.7815C290.227 10.7815 357.22 77.7734 357.22 160.118C357.22 178.818 353.82 197.006 347.111 214.237H333.028C340.438 197.176 344.197 179.012 344.197 160.118C344.197 84.9539 283.047 23.8034 207.884 23.8034C132.721 23.8034 71.5715 84.9532 71.5715 160.118C71.5715 235.28 132.721 296.43 207.884 296.43C247.839 296.43 285.405 279.106 311.375 248.822H328.032C299.891 286.964 255.692 309.453 207.884 309.453C125.541 309.453 58.5482 242.461 58.5482 160.117C58.5482 129.809 67.5752 100.632 84.6524 75.7393C86.3364 73.284 85.7118 69.9288 83.2572 68.244C80.8012 66.5592 77.4467 67.1846 75.7619 69.6392C57.4477 96.3356 47.7667 127.621 47.7667 160.116C47.7667 192.985 57.6138 224.335 75.8942 250.818L64.4291 262.283C62.0277 261.012 59.3367 260.336 56.5421 260.336C52.0304 260.336 47.7882 262.093 44.5984 265.283L35.9128 273.969C35.9077 273.974 35.9027 273.977 35.8984 273.982C35.8934 273.987 35.8898 273.992 35.8855 273.996L4.93896 304.943C-1.64567 311.528 -1.64567 322.244 4.93896 328.83L39.1702 363.061H39.1709C42.4636 366.353 46.7892 368 51.114 368C55.4402 368 59.765 366.353 63.0584 363.061L93.9985 332.12C94.0042 332.114 94.0114 332.109 94.0172 332.103C94.0229 332.098 94.028 332.09 94.0337 332.085L102.715 323.403C105.906 320.212 107.663 315.971 107.663 311.459C107.663 308.664 106.987 305.973 105.716 303.571L117.181 292.106C143.663 310.387 175.014 320.234 207.883 320.234C261.761 320.234 311.356 293.587 341.18 248.821H356.659C362.913 248.821 368 243.734 368 237.48V225.578C368 219.974 363.911 215.318 358.56 214.41ZM55.4352 355.437C53.0539 357.819 49.1769 357.82 46.7942 355.437H46.7949L12.5636 321.207C10.1816 318.824 10.1816 314.948 12.5636 312.566L39.71 285.419L82.5809 328.291L55.4352 355.437ZM95.0924 315.779L90.2048 320.666L47.334 277.795L52.2216 272.908C53.3752 271.754 54.9091 271.119 56.5414 271.119C58.1737 271.119 59.7068 271.754 60.8612 272.909L95.0932 307.14C96.2468 308.293 96.8822 309.827 96.8822 311.46C96.8822 313.091 96.2468 314.624 95.0924 315.779ZM98.6201 295.419L72.5807 269.38L82.3868 259.574C86.1905 264.354 90.2789 268.953 94.6633 273.337C99.0471 277.721 103.646 281.81 108.426 285.613L98.6201 295.419ZM207.883 34.5849C277.102 34.5849 333.415 90.8988 333.415 160.118C333.415 179.112 329.296 197.301 321.178 214.237H296.589V118.259C296.589 112.115 291.591 107.118 285.448 107.118H261.242C255.099 107.118 250.101 112.115 250.101 118.259V214.236H225.176V165.867C225.176 159.724 220.179 154.726 214.035 154.726H189.829C183.686 154.726 178.689 159.724 178.689 165.867V214.236H153.764V142.063C153.764 135.92 148.766 130.922 142.623 130.922H118.417C112.274 130.922 107.276 135.92 107.276 142.063V214.236H94.6296C86.7627 197.841 82.3516 179.485 82.3516 160.117C82.3516 90.8988 138.665 34.5849 207.883 34.5849ZM260.882 214.236V118.259C260.882 118.061 261.044 117.899 261.242 117.899H285.448C285.645 117.899 285.807 118.061 285.807 118.259V214.236H260.882ZM189.47 214.236V165.867C189.47 165.669 189.632 165.508 189.829 165.508H214.035C214.233 165.508 214.395 165.669 214.395 165.867V214.236H189.47ZM118.058 214.236V142.063C118.058 141.865 118.22 141.703 118.418 141.703H142.624C142.821 141.703 142.983 141.865 142.983 142.063V214.236H118.058ZM357.219 237.48C357.219 237.789 356.967 238.04 356.659 238.04H172.761C169.783 238.04 167.37 240.453 167.37 243.431C167.37 246.408 169.783 248.821 172.761 248.821H296.697C273.223 272.352 241.47 285.648 207.883 285.648C173.265 285.648 141.875 271.562 119.143 248.821H147.605C150.583 248.821 152.996 246.408 152.996 243.431C152.996 240.453 150.583 238.04 147.605 238.04H109.537C106.251 233.902 103.218 229.555 100.467 225.018H356.659C356.968 225.018 357.219 225.269 357.219 225.578V237.48Z" fill="url(#paint0_linear_72_205)"/>
<path d="M130.52 117.899C136.422 117.899 141.64 114.926 144.762 110.4L184.654 124.987C184.96 134.256 192.59 141.703 201.931 141.703C211.467 141.703 219.225 133.946 219.225 124.41C219.225 123.189 219.096 121.998 218.854 120.848L261.874 89.7273C264.928 92.4413 268.946 94.0945 273.344 94.0945C282.88 94.0945 290.638 86.3368 290.638 76.8017C290.638 67.2665 282.88 59.5089 273.344 59.5089C263.809 59.5089 256.052 67.2665 256.052 76.8017C256.052 78.0221 256.18 79.2131 256.422 80.3632L213.403 111.484C210.347 108.77 206.33 107.116 201.931 107.116C196.029 107.116 190.811 110.09 187.69 114.616L147.798 100.029C147.492 90.7594 139.861 83.3123 130.52 83.3123C120.985 83.3123 113.228 91.0699 113.228 100.606C113.228 110.142 120.985 117.899 130.52 117.899ZM273.344 70.2918C276.935 70.2918 279.856 73.2121 279.856 76.8031C279.856 80.3933 276.935 83.3144 273.344 83.3144C269.754 83.3144 266.833 80.3941 266.833 76.8031C266.833 73.2121 269.754 70.2918 273.344 70.2918ZM201.931 117.899C205.522 117.899 208.443 120.82 208.443 124.411C208.443 128.001 205.522 130.923 201.931 130.923C198.341 130.923 195.42 128.001 195.42 124.411C195.421 120.82 198.341 117.899 201.931 117.899ZM130.52 94.0952C134.111 94.0952 137.032 97.0163 137.032 100.607C137.032 104.198 134.111 107.119 130.52 107.119C126.93 107.119 124.009 104.198 124.009 100.607C124.009 97.0163 126.93 94.0952 130.52 94.0952Z" fill="url(#paint1_linear_72_205)"/>
</g>
<defs>
<linearGradient id="paint0_linear_72_205" x1="0.000240939" y1="98.5" x2="368" y2="368" gradientUnits="userSpaceOnUse">
<stop stop-color="#020A21"/>
<stop offset="1" stop-color="#102774"/>
</linearGradient>
<linearGradient id="paint1_linear_72_205" x1="113" y1="60" x2="376.5" y2="366.5" gradientUnits="userSpaceOnUse">
<stop stop-color="#020A21"/>
<stop offset="1" stop-color="#102774"/>
</linearGradient>
<clipPath id="clip0_72_205">
<rect width="368" height="368" fill="white"/>
</clipPath>
</defs>
</svg>
