<svg width="368" height="368" viewBox="0 0 368 368" fill="none" xmlns="http://www.w3.org/2000/svg">
<g clip-path="url(#clip0_72_201)">
<path d="M343.461 302.069H24.5393C17.776 302.069 12.2731 296.566 12.2731 289.803V43.7115C12.2731 36.9482 17.776 31.4452 24.5393 31.4452H92.0036C95.3906 31.4452 98.1367 28.6991 98.1367 25.3121C98.1367 21.9251 95.3906 19.179 92.0036 19.179H24.5393C11.0119 19.179 0.00683594 30.1841 0.00683594 43.7115V289.803C0.00683594 303.33 11.0119 314.335 24.5393 314.335H131.451L122.921 344.614C119.623 356.35 128.422 368 140.632 368H227.369C239.559 368 248.383 356.369 245.08 344.614C244.164 341.354 240.777 339.454 237.516 340.37C234.256 341.286 232.355 344.673 233.271 347.933C234.374 351.858 231.428 355.734 227.369 355.734H140.632C136.568 355.734 133.628 351.852 134.728 347.937L144.195 314.335H343.461C346.848 314.335 349.594 311.589 349.594 308.202C349.594 304.815 346.848 302.069 343.461 302.069Z" fill="url(#paint0_linear_72_201)"/>
<path d="M343.461 19.179H282.897C279.51 19.179 276.764 21.9251 276.764 25.3121C276.764 28.6991 279.51 31.4452 282.897 31.4452H343.461C350.225 31.4452 355.727 36.9482 355.727 43.7115V263.737H285.197V260.444C285.197 243.535 274.456 228.472 258.47 222.96L231.845 213.778C222.097 210.416 215.173 201.887 213.694 191.891C237.018 180.417 251.465 156.685 251.465 131.282V101.209H262.536C266.577 101.209 269.864 104.496 269.864 108.536V131.446C269.864 135.375 266.793 138.592 262.874 138.766C260.067 138.892 257.704 140.909 257.14 143.661C253.705 160.413 245.604 175.794 233.713 188.143C229.95 192.051 232.773 198.531 238.13 198.531C239.739 198.531 241.346 197.902 242.549 196.651C255.082 183.635 263.909 167.649 268.233 150.205C276.319 147.767 282.13 140.281 282.13 131.446V108.536C282.13 99.4768 275.949 91.8365 267.582 89.604V55.5377C267.602 24.8537 242.637 0.0183917 211.776 -7.62939e-06H169.482C147.808 -7.62939e-06 128.458 12.1857 119.178 31.3548C108.454 33.2974 100.295 42.6466 100.287 53.861V71.6072C100.287 74.9942 103.033 77.7403 106.42 77.7403C109.807 77.7403 112.553 74.9942 112.553 71.6072V53.8656C112.557 48.0108 117.385 43.2507 123.317 43.2507C125.864 43.2507 128.091 41.7036 129.015 39.4137C135.674 22.9194 151.555 12.2662 169.485 12.2662H211.773C235.86 12.2808 255.331 31.6338 255.316 55.5338V88.9432C244.844 88.9432 244.592 88.7929 243.126 89.3587C211.097 93.231 179.292 84.6516 153.659 65.0049C150.398 62.5064 145.645 63.8595 144.192 67.7035C140.433 77.6383 132.853 85.5048 122.396 88.9432H105.465C94.6606 88.9432 85.8711 97.7327 85.8711 108.537V131.447C85.8711 138.581 89.7526 145.156 96.0015 148.607C98.96 150.241 102.695 149.174 104.336 146.204C105.973 143.238 104.897 139.507 101.932 137.869C99.5917 136.577 98.1381 134.116 98.1381 131.447V108.537C98.1381 104.496 101.425 101.209 105.466 101.209H116.537V130.602C116.538 144.376 120.615 157.676 128.328 169.067C130.227 171.871 134.04 172.606 136.846 170.706C139.65 168.807 140.385 164.994 138.485 162.189C132.151 152.836 128.804 141.912 128.804 130.599V99.6662C138.495 95.8476 146.791 88.8643 152.315 79.167C178.48 97.0213 209.098 104.511 239.2 102.09V131.282C239.2 170.494 199.26 197.345 163.095 182.358C159.133 180.713 154.708 183.576 154.62 187.896C154.345 200.714 146.413 210.242 136.156 213.778L109.471 222.979C100.777 225.993 93.3574 231.981 88.5743 239.847C86.0835 243.944 89.0619 249.168 93.8089 249.168C95.8796 249.168 97.9005 248.119 99.055 246.221C102.367 240.775 107.507 236.632 113.53 234.556C142.336 224.622 142.804 224.739 147.386 222.032C157.962 243.857 185.193 250.428 205.053 238.871C207.981 237.167 208.973 233.413 207.269 230.486C205.565 227.558 201.81 226.567 198.884 228.269C184.38 236.711 163.701 231.571 157.21 213.817C161.507 208.845 164.551 202.833 165.972 196.3C177.631 199.549 190.212 199.578 202.037 196.321C204.942 209.644 214.598 220.807 227.848 225.376L254.474 234.556C265.514 238.363 272.932 248.767 272.932 260.445V263.738H50.5306C47.1436 263.738 44.3975 266.484 44.3975 269.871C44.3975 273.258 47.1436 276.004 50.5306 276.004H361.861C365.248 276.004 367.994 273.258 367.994 269.871V43.7122C367.994 30.1841 356.989 19.179 343.461 19.179Z" fill="url(#paint1_linear_72_201)"/>
</g>
<defs>
<linearGradient id="paint0_linear_72_201" x1="2.29394e-06" y1="109" x2="350" y2="368" gradientUnits="userSpaceOnUse">
<stop stop-color="#020A21"/>
<stop offset="1" stop-color="#102774"/>
</linearGradient>
<linearGradient id="paint1_linear_72_201" x1="44" y1="88" x2="368" y2="276" gradientUnits="userSpaceOnUse">
<stop stop-color="#020A21"/>
<stop offset="1" stop-color="#102774"/>
</linearGradient>
<clipPath id="clip0_72_201">
<rect width="368" height="368" fill="white"/>
</clipPath>
</defs>
</svg>
