<svg width="368" height="368" viewBox="0 0 368 368" fill="none" xmlns="http://www.w3.org/2000/svg">
<path d="M54.0848 140.509C71.3696 140.509 85.8669 126.012 85.8669 108.169C85.8669 90.327 71.3703 75.8296 54.0848 75.8296C36.7994 75.8296 22.3027 90.3262 22.3027 108.169C22.3027 126.012 36.2425 140.509 54.0848 140.509ZM54.0848 86.4244C65.2365 86.4244 74.7153 95.9031 74.7153 107.612C74.7153 119.322 65.2365 128.8 54.0848 128.8C42.9332 128.8 33.4544 119.879 33.4544 108.17C33.4544 96.4608 42.3763 86.4244 54.0848 86.4244Z" fill="url(#paint0_linear_427_65)"/>
<path d="M189.576 103.151C206.861 103.151 221.358 88.6548 221.358 70.8118C221.358 52.9687 206.861 38.4728 189.576 38.4728C172.291 38.4728 157.794 52.9694 157.794 70.8125C157.794 88.6556 172.291 103.151 189.576 103.151ZM189.576 49.6244C200.728 49.6244 210.206 59.1032 210.206 70.8125C210.206 82.5218 200.728 92.0006 189.576 92.0006C178.424 92.0006 168.946 82.5218 168.946 70.8125C168.946 59.1032 178.424 49.6244 189.576 49.6244Z" fill="url(#paint1_linear_427_65)"/>
<path d="M313.915 65.2363C331.2 65.2363 345.698 50.7397 345.698 32.8966C345.698 14.4966 331.758 0 313.915 0C296.631 0 282.133 14.4966 282.133 32.3397C282.133 50.7397 296.631 65.2363 313.915 65.2363ZM313.915 11.1516C325.067 11.1516 334.546 20.6304 334.546 32.3397C334.546 44.049 325.067 53.5278 313.915 53.5278C302.764 53.5278 293.285 44.049 293.285 32.3397C293.285 20.6304 302.764 11.1516 313.915 11.1516Z" fill="url(#paint2_linear_427_65)"/>
<path d="M362.425 240.316H345.14C345.697 239.2 345.697 238.085 345.697 236.97V183.443H359.636C362.982 183.443 365.212 181.212 365.212 177.867V99.8057C365.212 81.4058 352.387 66.9084 336.218 66.9084H291.612C276 66.9084 262.618 81.9627 262.618 99.8057V177.867C262.618 181.212 264.849 183.442 268.194 183.442H282.133V236.97C282.133 238.085 282.133 239.2 282.691 240.316H265.406C262.06 240.316 259.831 242.546 259.831 245.891V356.848H243.104V283.806C243.104 280.46 240.873 278.231 237.528 278.231H220.243C220.243 277.115 220.801 276 220.801 274.885V221.358H234.741C238.086 221.358 240.316 219.127 240.316 215.782V137.722C240.316 119.322 227.492 104.824 211.322 104.824H166.716C151.105 104.824 137.722 119.879 137.722 137.722V215.782C137.722 219.128 139.953 221.358 143.298 221.358H157.238V274.885C157.238 276 157.238 277.115 157.795 278.231H141.068C137.722 278.231 135.493 280.461 135.493 283.806V356.848H107.614V322.837C107.614 319.491 105.383 317.261 102.038 317.261H84.7537C85.3113 315.588 85.869 313.915 85.869 312.243V258.716H99.808C103.154 258.716 105.383 256.486 105.383 253.141V175.079C105.383 156.679 92.5589 142.182 76.3894 142.182H31.7821C16.1702 142.182 2.7881 157.236 2.7881 175.079V253.14C2.7881 256.486 5.01858 258.715 8.36355 258.715H22.3033V312.242C22.3033 313.915 22.8609 315.588 23.4185 317.26H5.57545C2.22974 317.26 0 319.491 0 322.836V362.424C0 365.77 2.23048 367.999 5.57545 367.999C196.824 367.999 174.521 367.999 362.424 367.999C365.77 367.999 367.999 365.769 367.999 362.424V245.891C368 242.545 365.77 240.316 362.425 240.316ZM22.3033 209.649V247.564H13.9397V175.079C13.9397 162.812 21.7457 153.334 31.7821 153.334H76.3879C86.4244 153.334 94.2303 163.37 94.2303 175.079V247.564H85.8667V209.649C85.8667 206.303 83.6363 204.073 80.2913 204.073C76.9463 204.073 74.7158 206.304 74.7158 209.649V312.242C74.7158 313.915 73.043 315.588 71.3701 315.588H59.6608V255.37C59.6608 252.024 57.4304 249.794 54.0854 249.794C50.7404 249.794 48.5099 252.025 48.5099 255.37V315.031H36.2423C34.5695 315.588 33.4542 313.915 33.4542 312.242V209.649C33.4542 206.303 31.2237 204.073 27.8788 204.073C24.5338 204.073 22.3033 206.303 22.3033 209.649ZM96.4608 356.848H11.1516V328.412H96.4608V356.848ZM149.43 210.206V137.722C149.43 125.455 157.236 115.976 167.273 115.976H211.878C221.915 115.976 229.721 126.012 229.721 137.722V210.206H221.357V172.291C221.357 168.945 219.127 166.716 215.782 166.716C212.437 166.716 210.206 168.946 210.206 172.291V274.885C210.206 276.558 208.533 278.231 206.861 278.231H195.151V218.57C195.151 215.224 192.921 212.994 189.576 212.994C186.231 212.994 184 215.225 184 218.57V278.231H172.291C170.618 278.231 168.945 276.558 168.945 274.885V172.291C168.945 168.945 166.715 166.716 163.37 166.716C160.025 166.716 157.794 168.946 157.794 172.291V210.206H149.43ZM231.952 356.848H146.643V328.412H231.952V356.848ZM232.509 317.818H146.642V289.382C194.036 289.382 183.442 289.382 232.509 289.382V317.818ZM282.133 134.376V172.291H274.327V99.8065C274.327 87.5396 282.133 78.0608 292.17 78.0608H336.776C346.812 78.0608 354.618 88.0972 354.618 99.8065V172.291H345.697V134.376C345.697 131.03 343.466 128.8 340.121 128.8C336.776 128.8 334.546 131.031 334.546 134.376V236.97C334.546 238.643 332.873 240.316 331.2 240.316H319.491V180.097C319.491 176.751 317.26 174.522 313.915 174.522C310.57 174.522 308.34 176.752 308.34 180.097V239.758H296.631C294.958 239.758 293.285 238.085 293.285 236.412V134.376C293.285 131.03 291.054 128.8 287.709 128.8C284.364 128.8 282.133 131.03 282.133 134.376ZM356.848 356.848H271.539V328.412H356.848V356.848ZM356.848 317.818H271.539V289.382H356.848V317.818ZM356.848 278.231H271.539V251.467H356.848V278.231Z" fill="url(#paint3_linear_427_65)"/>
<defs>
<linearGradient id="paint0_linear_427_65" x1="86.0002" y1="76" x2="1.50022" y2="373.5" gradientUnits="userSpaceOnUse">
<stop stop-color="#020A21"/>
<stop offset="1" stop-color="#102774"/>
</linearGradient>
<linearGradient id="paint1_linear_427_65" x1="221" y1="38" x2="-5.4997" y2="371" gradientUnits="userSpaceOnUse">
<stop stop-color="#020A21"/>
<stop offset="1" stop-color="#102774"/>
</linearGradient>
<linearGradient id="paint2_linear_427_65" x1="346" y1="7.01848e-06" x2="-0.499936" y2="366.5" gradientUnits="userSpaceOnUse">
<stop stop-color="#020A21"/>
<stop offset="1" stop-color="#102774"/>
</linearGradient>
<linearGradient id="paint3_linear_427_65" x1="368" y1="217" x2="1.31408e-05" y2="368" gradientUnits="userSpaceOnUse">
<stop stop-color="#020A21"/>
<stop offset="1" stop-color="#102774"/>
</linearGradient>
</defs>
</svg>
