<svg width="180" height="180" viewBox="0 0 180 180" fill="none" xmlns="http://www.w3.org/2000/svg">
<g clip-path="url(#clip0_126_284)">
<path d="M52.6289 143.87C43.9922 146.363 37.9588 154.38 37.9588 163.37V180H142.33V163.37C142.33 154.38 136.298 146.366 127.661 143.87L104.641 137.231V131.394C107.705 128.934 110.129 125.712 111.631 122.016H113.338C119.734 122.016 124.935 116.815 124.935 110.419V93.0237C124.935 73.8405 109.329 58.2332 90.1445 58.2332C70.9613 58.2332 55.354 73.8405 55.354 93.0237V110.419C55.354 116.815 60.5565 122.016 66.9508 122.016H68.6595C70.1615 125.712 72.585 128.934 75.6485 131.394V137.231L52.6289 143.87ZM77.7068 142.67L85.8056 150.767L77.241 157.619L73.3297 143.934L77.7068 142.67ZM95.4687 158.981L91.8447 162.605H88.4457L84.8217 158.981L90.1445 154.722L95.4687 158.981ZM89.0375 168.403H91.2529L94.1521 174.201H86.1383L89.0375 168.403ZM43.7572 163.37C43.7572 156.952 48.0664 151.226 54.2357 149.442L67.7578 145.541L74.0573 167.592L80.2648 162.624L83.7175 166.076L79.6561 174.201H61.1524V165.504H55.354V174.201H43.7572V163.37ZM136.532 163.37V174.201H124.935V165.504H119.137V174.201H100.634L96.5728 166.076L100.026 162.624L106.233 167.592L112.533 145.541L126.055 149.442C132.224 151.223 136.532 156.952 136.532 163.37ZM106.961 143.934L103.049 157.619L94.4848 150.767L102.582 142.67L106.961 143.934ZM113.338 116.217H113.139C113.257 115.266 113.338 114.301 113.338 113.318V104.621C116.536 104.621 119.137 107.221 119.137 110.419C119.137 113.617 116.536 116.217 113.338 116.217ZM90.1445 64.0316C106.131 64.0316 119.137 77.037 119.137 93.0237V100.435C117.424 99.4365 115.462 98.8221 113.338 98.8221V97.1616C113.338 91.6817 108.88 87.2253 103.403 87.2253C101.873 87.2253 100.336 87.5877 98.9582 88.2757L92.5227 91.4934C90.5196 92.4928 88.2773 93.0237 86.0363 93.0237H75.6485C71.8744 93.0237 68.685 95.4557 67.4845 98.8221H66.9508C64.8288 98.8221 62.8668 99.4365 61.1524 100.435V93.0237C61.1524 77.037 74.1592 64.0316 90.1445 64.0316ZM66.9508 116.217C63.7529 116.217 61.1524 113.617 61.1524 110.419C61.1524 107.221 63.7529 104.621 66.9508 104.621V113.318C66.9508 114.301 67.033 115.266 67.1519 116.217H66.9508ZM72.7493 113.318V101.721C72.7493 100.122 74.0516 98.8221 75.6485 98.8221H86.0363C89.1734 98.8221 92.3104 98.0803 95.1147 96.6803L101.55 93.464C102.125 93.1752 102.762 93.0265 103.403 93.0265C105.685 93.0237 107.54 94.8796 107.54 97.1616V113.318C107.54 122.912 99.7382 130.713 90.1445 130.713C80.5522 130.713 72.7493 122.912 72.7493 113.318ZM90.1445 136.512C93.2206 136.512 96.1552 135.897 98.8421 134.805V138.211L90.1445 146.908L81.4469 138.211V134.805C84.1351 135.897 87.0683 136.512 90.1445 136.512ZM90.1445 0L84.5867 10.1798L72.367 13.3593L80.9811 20.5521L76.5134 35.7531L90.1445 27.2154L103.777 35.7531L99.3092 20.5521L107.923 13.3593L95.7022 10.1798L90.1445 0ZM93.9086 22.7293L90.1445 20.3723L86.3817 22.7293L87.6105 18.5405L84.7297 16.1339L88.4726 15.16L90.1445 12.0951L91.8177 15.1571L95.5607 16.1311L92.6785 18.5376L93.9086 22.7293ZM124.935 17.3952L119.377 27.575L107.157 30.7545L115.772 37.9473L111.304 53.1483L124.935 44.6107L138.567 53.1483L134.1 37.9473L142.714 30.7545L130.493 27.575L124.935 17.3952ZM128.699 40.1245L124.935 37.7675L121.172 40.1245L122.401 35.9357L119.52 33.5291L123.263 32.5552L124.935 29.4903L126.608 32.5523L130.351 33.5263L127.469 35.9329L128.699 40.1245ZM165.283 10.1798L159.725 0L154.168 10.1798L141.945 13.3564L150.559 20.5492L146.091 35.7502L159.725 27.2154L173.358 35.7531L168.89 20.5521L177.504 13.3593L165.283 10.1798ZM163.49 22.7293L159.725 20.3723L155.963 22.7293L157.191 18.5405L154.311 16.1339L158.054 15.16L159.725 12.0951L161.399 15.1571L165.142 16.1311L162.259 18.5376L163.49 22.7293ZM55.354 17.3952L49.7963 27.575L37.5766 30.7545L46.1907 37.9473L41.723 53.1483L55.354 44.6107L68.9865 53.1483L64.5188 37.9473L73.1329 30.7545L60.9118 27.575L55.354 17.3952ZM59.1182 40.1245L55.354 37.7675L51.5913 40.1245L52.8201 35.9357L49.9393 33.5291L53.6822 32.5552L55.354 29.4903L57.0273 32.5523L60.7702 33.5263L57.888 35.9329L59.1182 40.1245ZM20.5636 0L15.0058 10.1798L2.78613 13.3593L11.4002 20.5521L6.9325 35.7531L20.5636 27.2154L34.1961 35.7531L29.7283 20.5521L38.3424 13.3593L26.1213 10.1798L20.5636 0ZM24.3277 22.7293L20.5636 20.3723L16.8008 22.7293L18.0296 18.5405L15.1488 16.1339L18.8917 15.16L20.5636 12.0951L22.2368 15.1571L25.9798 16.1311L23.0975 18.5376L24.3277 22.7293ZM154.264 129.751L159.393 132.464C165.299 121.282 168.423 108.651 168.423 95.9229C168.423 83.883 165.595 71.9408 160.289 61.223C161.727 59.6715 162.625 57.6132 162.625 55.334C162.625 50.5393 158.723 46.6364 153.927 46.6364C149.132 46.6364 145.229 50.5393 145.229 55.334C145.229 60.1302 149.132 64.0316 153.927 64.0316C154.347 64.0316 154.748 63.9651 155.151 63.9071C160.027 73.8023 162.625 84.8159 162.625 95.9229C162.625 107.705 159.735 119.407 154.264 129.751ZM151.028 55.334C151.028 53.7372 152.33 52.4348 153.927 52.4348C155.525 52.4348 156.826 53.7372 156.826 55.334C156.826 56.9323 155.525 58.2332 153.927 58.2332C152.33 58.2332 151.028 56.9323 151.028 55.334ZM26.362 145.209C31.1581 145.209 35.0596 141.308 35.0596 136.512C35.0596 131.717 31.1581 127.814 26.362 127.814C25.9415 127.814 25.5423 127.881 25.1389 127.939C20.262 118.043 17.6644 107.03 17.6644 95.9229C17.6644 84.1378 20.5551 72.4391 26.0265 62.0951L20.9005 59.3841C14.9917 70.5605 11.866 83.195 11.866 95.9229C11.866 107.963 14.6958 119.902 19.9987 130.627C18.5633 132.177 17.6644 134.235 17.6644 136.512C17.6644 141.308 21.5673 145.209 26.362 145.209ZM29.2612 136.512C29.2612 138.113 27.9602 139.411 26.362 139.411C24.7652 139.411 23.4628 138.113 23.4628 136.512C23.4628 134.912 24.7652 133.613 26.362 133.613C27.9602 133.613 29.2612 134.912 29.2612 136.512Z" fill="url(#paint0_linear_126_284)"/>
</g>
<defs>
<linearGradient id="paint0_linear_126_284" x1="177.505" y1="89.7286" x2="-7.03425" y2="149.864" gradientUnits="userSpaceOnUse">
<stop stop-color="#020A21"/>
<stop offset="1" stop-color="#102774"/>
</linearGradient>
<clipPath id="clip0_126_284">
<rect width="180" height="180" fill="white"/>
</clipPath>
</defs>
</svg>
