<svg width="368" height="368" viewBox="0 0 368 368" fill="none" xmlns="http://www.w3.org/2000/svg">
<path d="M314.108 53.8919C279.354 19.1396 233.148 0 184 0C156.919 0 130.831 5.74928 106.463 17.0876C103.764 18.3432 102.594 21.5496 103.849 24.2492C105.106 26.9481 108.311 28.1204 111.011 26.8626C133.945 16.1913 158.502 10.7812 184 10.7812C279.513 10.7812 357.219 88.4867 357.219 184C357.219 279.513 279.513 357.219 184 357.219C88.4867 357.219 10.7812 279.513 10.7812 184C10.7812 125.149 40.273 70.8285 89.672 38.6932C92.1675 37.0695 92.8747 33.7302 91.2511 31.2347C89.6274 28.7392 86.2888 28.0327 83.7933 29.6556C31.3246 63.7883 0 121.487 0 184C0 233.148 19.1396 279.355 53.8919 314.108C88.6456 348.86 134.852 368 184 368C233.148 368 279.354 348.86 314.108 314.108C348.86 279.355 368 233.148 368 184C368 134.852 348.86 88.6449 314.108 53.8919Z" fill="url(#paint0_linear_72_185)"/>
<path d="M310.245 178.52H330.948C333.991 178.585 336.611 175.767 336.324 172.736C333.664 136.248 317.9 101.872 291.937 75.9388C265.973 50.0034 231.575 34.2786 195.079 31.6609C192.048 31.3749 189.239 33.9976 189.302 37.0365L189.296 64.4129C189.296 67.4338 186.837 69.892 183.811 69.892C180.789 69.892 178.331 67.4338 178.33 64.4129L178.325 37.0638C178.388 34.0177 175.572 31.4 172.536 31.689C136.122 34.3922 101.815 50.1522 75.9328 76.0668C50.0485 101.983 34.3301 136.314 31.6744 172.736C31.3876 175.767 34.0081 178.584 37.0506 178.519H57.0376C60.06 178.519 62.5181 180.978 62.5181 183.999C62.5181 187.021 60.06 189.48 57.0376 189.48H37.0506C34.0074 189.414 31.3876 192.232 31.6744 195.263C34.3301 231.685 50.0492 266.017 75.9357 291.935C101.82 317.849 136.129 333.609 172.544 336.31C175.575 336.601 178.399 333.98 178.333 330.935V310.775C178.333 307.754 180.791 305.295 183.814 305.295C186.836 305.295 189.294 307.754 189.294 310.775V330.961C189.226 334 192.048 336.624 195.07 336.338C221.725 334.428 247.501 325.493 269.613 310.501C272.078 308.83 272.72 305.477 271.05 303.014C269.379 300.55 266.026 299.906 263.563 301.577C244.618 314.422 222.78 322.482 200.075 325.05V310.775C200.075 301.808 192.78 294.514 183.813 294.514C174.846 294.514 167.551 301.808 167.551 310.775V325.009C102.595 317.467 50.4237 265.23 42.9688 200.261H57.0369C66.004 200.261 73.2986 192.966 73.2986 183.999C73.2986 175.032 66.004 167.738 57.0369 167.738H42.9695C50.4237 102.773 102.593 50.536 167.545 42.9913L167.55 64.4151C167.552 73.3793 174.846 80.6725 183.816 80.6725C192.781 80.6725 200.076 73.3793 200.078 64.4151L200.083 42.9489C265.229 50.3398 317.56 102.601 325.03 167.738H310.245C301.278 167.738 293.984 175.032 293.984 183.999C293.984 192.966 301.278 200.261 310.245 200.261H325.031C321.291 232.999 306.256 263.403 282.313 286.397C280.165 288.46 280.096 291.871 282.158 294.019C284.221 296.165 287.632 296.235 289.78 294.173C317.053 267.982 333.582 232.854 336.324 195.263C336.611 192.232 333.991 189.414 330.948 189.48H310.245C307.223 189.48 304.765 187.021 304.765 183.999C304.765 180.978 307.224 178.52 310.245 178.52Z" fill="url(#paint1_linear_72_185)"/>
<path d="M209.875 140.875C209.875 126.607 198.268 115 184 115C169.732 115 158.125 126.607 158.125 140.875C158.125 155.143 169.732 166.75 184 166.75C198.268 166.75 209.875 155.143 209.875 140.875ZM168.906 140.875C168.906 132.553 175.677 125.781 184 125.781C192.323 125.781 199.094 132.553 199.094 140.875C199.094 149.197 192.323 155.969 184 155.969C175.677 155.969 168.906 149.197 168.906 140.875Z" fill="url(#paint2_linear_72_185)"/>
<path d="M266.656 135.844C266.656 123.161 256.339 112.844 243.656 112.844C230.974 112.844 220.656 123.161 220.656 135.844C220.656 148.526 230.974 158.844 243.656 158.844C256.339 158.844 266.656 148.526 266.656 135.844ZM231.438 135.844C231.438 129.106 236.919 123.625 243.656 123.625C250.394 123.625 255.875 129.106 255.875 135.844C255.875 142.581 250.394 148.062 243.656 148.062C236.919 148.062 231.438 142.581 231.438 135.844Z" fill="#020A21"/>
<path d="M123.625 158.844C136.307 158.844 146.625 148.526 146.625 135.844C146.625 123.161 136.307 112.844 123.625 112.844C110.943 112.844 100.625 123.161 100.625 135.844C100.625 148.526 110.943 158.844 123.625 158.844ZM123.625 123.625C130.363 123.625 135.844 129.106 135.844 135.844C135.844 142.581 130.363 148.062 123.625 148.062C116.887 148.062 111.406 142.581 111.406 135.844C111.406 129.106 116.887 123.625 123.625 123.625Z" fill="url(#paint3_linear_72_185)"/>
<path d="M96.1927 197.296C97.0833 194.455 95.5027 191.43 92.6615 190.54C89.8196 189.647 86.7958 191.23 85.9053 194.07C83.5046 200.653 84.163 210.476 84.0933 217.422C84.0933 227.132 92.2109 235.031 102.189 235.031H138.729C138.957 245.77 147.757 254.438 158.549 254.438H209.45C220.242 254.438 229.042 245.77 229.27 235.031H265.092C275.07 235.031 283.188 227.132 283.188 217.422V205.922C283.188 183.926 265.379 166.031 243.489 166.031H243.133C230.297 166.031 218.315 172.445 211.016 182.816C203.512 177.242 194.225 173.938 184.18 173.938H183.82C173.565 173.938 164.104 177.384 156.519 183.171C149.254 172.578 137.186 166.031 124.149 166.031H123.793C116.886 166.031 110.06 167.881 104.052 171.379C101.478 172.877 100.607 176.177 102.105 178.75C103.603 181.323 106.904 182.194 109.476 180.696C113.839 178.155 118.79 176.812 123.792 176.812H124.149C134.233 176.812 143.512 182.243 148.631 190.874C142.437 198.598 138.719 208.39 138.719 219.038V224.25H102.189C98.1564 224.25 94.8753 221.187 94.8753 217.422C95.0104 211.881 94.2521 202.524 96.1927 197.296ZM243.133 176.812H243.489C259.435 176.812 272.407 189.871 272.407 205.922V217.422C272.407 221.187 269.125 224.25 265.093 224.25H229.282V219.038C229.282 208.154 225.406 198.159 218.962 190.358C224.147 182.039 233.292 176.812 243.133 176.812ZM184.18 184.719C203.104 184.719 218.5 200.114 218.5 219.038V234.606C218.5 239.596 214.441 243.656 209.45 243.656H158.55C153.56 243.656 149.5 239.597 149.5 234.606V219.038C149.5 200.114 164.896 184.719 183.821 184.719H184.18Z" fill="url(#paint4_linear_72_185)"/>
<defs>
<linearGradient id="paint0_linear_72_185" x1="368" y1="170" x2="8.34466e-07" y2="368" gradientUnits="userSpaceOnUse">
<stop stop-color="#020A21"/>
<stop offset="1" stop-color="#102774"/>
</linearGradient>
<linearGradient id="paint1_linear_72_185" x1="336" y1="170" x2="31.9998" y2="336" gradientUnits="userSpaceOnUse">
<stop stop-color="#020A21"/>
<stop offset="1" stop-color="#102774"/>
</linearGradient>
<linearGradient id="paint2_linear_72_185" x1="184" y1="115" x2="93.5" y2="257" gradientUnits="userSpaceOnUse">
<stop stop-color="#020A21"/>
<stop offset="1" stop-color="#102774"/>
</linearGradient>
<linearGradient id="paint3_linear_72_185" x1="147" y1="113" x2="72" y2="245.5" gradientUnits="userSpaceOnUse">
<stop stop-color="#020A21"/>
<stop offset="1" stop-color="#102774"/>
</linearGradient>
<linearGradient id="paint4_linear_72_185" x1="283" y1="166" x2="72.0003" y2="254" gradientUnits="userSpaceOnUse">
<stop stop-color="#020A21"/>
<stop offset="1" stop-color="#102774"/>
</linearGradient>
</defs>
</svg>
