<svg width="181" height="180" viewBox="0 0 181 180" fill="none" xmlns="http://www.w3.org/2000/svg">
<path d="M178.081 81.2903H168.834C166.846 63.62 158.877 47.1465 146.234 34.5738C133.592 22.001 117.027 14.0759 99.2581 12.0992V2.90323C99.2581 2.13324 98.9505 1.3948 98.403 0.850335C97.8555 0.305875 97.113 0 96.3387 0H84.6613C83.887 0 83.1445 0.305875 82.597 0.850335C82.0495 1.3948 81.7419 2.13324 81.7419 2.90323V12.0992C63.9734 14.0759 47.4085 22.001 34.7659 34.5738C22.1233 47.1465 14.1541 63.62 12.1664 81.2903H2.91935C2.14509 81.2903 1.40254 81.5962 0.855059 82.1407C0.307574 82.6851 0 83.4236 0 84.1936V95.8064C0 96.5764 0.307574 97.3149 0.855059 97.8593C1.40254 98.4038 2.14509 98.7097 2.91935 98.7097H12.1664C14.1541 116.38 22.1233 132.853 34.7659 145.426C47.4085 157.999 63.9734 165.924 81.7419 167.901V177.097C81.7419 177.867 82.0495 178.605 82.597 179.15C83.1445 179.694 83.887 180 84.6613 180H96.3387C97.113 180 97.8555 179.694 98.403 179.15C98.9505 178.605 99.2581 177.867 99.2581 177.097V167.901C117.027 165.924 133.592 157.999 146.234 145.426C158.877 132.853 166.846 116.38 168.834 98.7097H178.081C178.855 98.7097 179.597 98.4038 180.145 97.8593C180.692 97.3149 181 96.5764 181 95.8064V84.1936C181 83.4236 180.692 82.6851 180.145 82.1407C179.597 81.5962 178.855 81.2903 178.081 81.2903ZM99.2581 17.9383C115.472 19.8911 130.558 27.1936 142.107 38.6782C153.655 50.1629 160.998 65.1664 162.962 81.2903H157.076C155.142 66.7154 148.429 53.1817 137.976 42.7864C127.523 32.3911 113.914 25.7147 99.2581 23.7919V17.9383ZM87.5806 5.80645H93.4193V46.4516H87.5806V5.80645ZM38.8931 38.6782C50.4386 27.1895 65.527 19.8863 81.7419 17.9383V23.7919C67.0861 25.7147 53.4771 32.3911 43.0241 42.7864C32.571 53.1817 25.8576 66.7154 23.9241 81.2903H18.038C19.9968 65.165 27.3405 50.1599 38.8931 38.6782ZM5.83871 92.9032V87.0968H46.7097V92.9032H5.83871ZM81.7419 162.062C65.5285 160.109 50.4415 152.806 38.8931 141.322C27.3447 129.837 20.0016 114.834 18.038 98.7097H23.9241C25.8576 113.285 32.571 126.818 43.0241 137.214C53.4771 147.609 67.0861 154.285 81.7419 156.208V162.062ZM93.4193 174.194H87.5806V133.548H93.4193V174.194ZM96.3387 127.742H84.6613C83.887 127.742 83.1445 128.048 82.597 128.592C82.0495 129.137 81.7419 129.875 81.7419 130.645V150.344C68.6437 148.461 56.5093 142.416 47.1512 133.109C37.7932 123.803 31.7138 111.736 29.8212 98.7097H49.629C50.4033 98.7097 51.1458 98.4038 51.6933 97.8593C52.2408 97.3149 52.5484 96.5764 52.5484 95.8064V84.1936C52.5484 83.4236 52.2408 82.6851 51.6933 82.1407C51.1458 81.5962 50.4033 81.2903 49.629 81.2903H29.8212C31.7138 68.2645 37.7932 56.1971 47.1512 46.8907C56.5093 37.5844 68.6437 31.5386 81.7419 29.6565V49.3548C81.7419 50.1248 82.0495 50.8633 82.597 51.4077C83.1445 51.9522 83.887 52.2581 84.6613 52.2581H96.3387C97.113 52.2581 97.8555 51.9522 98.403 51.4077C98.9505 50.8633 99.2581 50.1248 99.2581 49.3548V29.6565C112.356 31.5386 124.491 37.5844 133.849 46.8907C143.207 56.1971 149.286 68.2645 151.179 81.2903H131.371C130.597 81.2903 129.854 81.5962 129.307 82.1407C128.759 82.6851 128.452 83.4236 128.452 84.1936V95.8064C128.452 96.5764 128.759 97.3149 129.307 97.8593C129.854 98.4038 130.597 98.7097 131.371 98.7097H151.179C149.286 111.736 143.207 123.803 133.849 133.109C124.491 142.416 112.356 148.461 99.2581 150.344V130.645C99.2581 129.875 98.9505 129.137 98.403 128.592C97.8555 128.048 97.113 127.742 96.3387 127.742ZM142.107 141.322C130.561 152.811 115.473 160.114 99.2581 162.062V156.208C113.914 154.285 127.523 147.609 137.976 137.214C148.429 126.818 155.142 113.285 157.076 98.7097H162.962C161.003 114.835 153.659 129.84 142.107 141.322ZM175.161 92.9032H134.29V87.0968H175.161V92.9032Z" fill="url(#paint0_linear_126_280)"/>
<path d="M90.5001 58.0645C84.1488 58.0645 77.9401 59.9374 72.6591 63.4466C67.3782 66.9557 63.2622 71.9433 60.8317 77.7787C58.4011 83.6142 57.7652 90.0354 59.0043 96.2302C60.2433 102.425 63.3018 108.115 67.7929 112.582C72.2839 117.048 78.0059 120.09 84.2352 121.322C90.4645 122.554 96.9213 121.922 102.789 119.504C108.657 117.087 113.672 112.994 117.201 107.742C120.73 102.491 122.613 96.3162 122.613 89.9999C122.603 81.5331 119.217 73.4157 113.197 67.4287C107.176 61.4418 99.014 58.0741 90.5001 58.0645ZM90.5001 116.129C84.0625 116.133 77.8496 113.776 73.0497 109.51C73.2469 108.126 73.9392 106.859 74.9996 105.942C76.0599 105.025 77.4173 104.518 78.8227 104.516C79.2759 104.516 79.723 104.411 80.1291 104.211L85.9678 101.308C86.4525 101.066 86.8601 100.695 87.145 100.236C87.4298 99.7775 87.5807 99.2489 87.5808 98.7096V93.5854C87.5812 93.1769 87.4946 92.7729 87.3267 92.4001C87.1587 92.0273 86.9133 91.6941 86.6064 91.4225C85.9948 90.8779 85.5055 90.2111 85.1703 89.4658C84.8352 88.7204 84.6618 87.9132 84.6614 87.0967V81.2903C84.6614 79.7503 85.2766 78.2734 86.3715 77.1845C87.4665 76.0956 88.9516 75.4838 90.5001 75.4838C92.0486 75.4838 93.5337 76.0956 94.6287 77.1845C95.7237 78.2734 96.3388 79.7503 96.3388 81.2903V87.0967C96.3385 87.9132 96.1651 88.7204 95.8299 89.4658C95.4948 90.2111 95.0055 90.8779 94.3938 91.4225C94.087 91.6941 93.8415 92.0273 93.6736 92.4001C93.5056 92.7729 93.419 93.1769 93.4195 93.5854V98.7096C93.4195 99.2489 93.5704 99.7775 93.8553 100.236C94.1401 100.695 94.5477 101.066 95.0324 101.308L100.871 104.211C101.277 104.411 101.724 104.516 102.178 104.516C103.583 104.518 104.94 105.025 106.001 105.942C107.061 106.859 107.753 108.126 107.951 109.51C103.151 113.776 96.9377 116.133 90.5001 116.129ZM112.308 104.556C111.347 102.888 109.987 101.484 108.347 100.467C106.707 99.4508 104.839 98.8544 102.911 98.7314L99.2582 96.9169V94.7757C101.138 92.6541 102.175 89.9242 102.178 87.0967V81.2903C102.178 78.2103 100.947 75.2565 98.7573 73.0787C96.5674 70.9009 93.5972 69.6774 90.5001 69.6774C87.4031 69.6774 84.4329 70.9009 82.2429 73.0787C80.053 75.2565 78.8227 78.2103 78.8227 81.2903V87.0967C78.8248 89.9242 79.8626 92.6541 81.7421 94.7757V96.9169L78.0892 98.7314C76.1609 98.8544 74.2933 99.4508 72.6535 100.467C71.0137 101.484 69.6528 102.888 68.6925 104.556C66.0354 100.624 64.5033 96.0473 64.2602 91.3159C64.017 86.5846 65.0719 81.8765 67.312 77.6954C69.5521 73.5144 72.8932 70.0177 76.9776 67.5794C81.0621 65.1412 85.7363 63.8531 90.5001 63.8531C95.264 63.8531 99.9382 65.1412 104.023 67.5794C108.107 70.0177 111.448 73.5144 113.688 77.6954C115.928 81.8765 116.983 86.5846 116.74 91.3159C116.497 96.0473 114.965 100.624 112.308 104.556Z" fill="url(#paint1_linear_126_280)"/>
<defs>
<linearGradient id="paint0_linear_126_280" x1="181" y1="89.7287" x2="-8.83947" y2="153.816" gradientUnits="userSpaceOnUse">
<stop stop-color="#020A21"/>
<stop offset="1" stop-color="#102774"/>
</linearGradient>
<linearGradient id="paint1_linear_126_280" x1="122.613" y1="89.9037" x2="55.2506" y2="112.644" gradientUnits="userSpaceOnUse">
<stop stop-color="#020A21"/>
<stop offset="1" stop-color="#102774"/>
</linearGradient>
</defs>
</svg>
